# xmcd
#
# Track frame offsets: 
#        150
#        20570
#        37672
#        59675
#        71575
#        91020
#
# Disc length: 1233 seconds
#
# Revision: 3
# Processed by: cddbd v1.5.2PL0 Copyright (c) Steve Scherf et al.
# Submitted via: ExactAudioCopy v0.99pb4
#
DISCID=4404cf06
DTITLE=Christina Lux - She Is Me
DYEAR=1998
DGENRE=Rock
TTITLE0=She Is Me
TTITLE1=Diggi
TTITLE2=Sweet Secrets
TTITLE3=Little Girl
TTITLE4=Rays Of Light
TTITLE5=Princess
EXTD=
EXTT0=
EXTT1=
EXTT2=
EXTT3=
EXTT4=
EXTT5=
PLAYORDER=
